<svg width="51" height="50" viewBox="0 0 51 50" fill="none" xmlns="http://www.w3.org/2000/svg">
<path d="M42.1797 50H8.26212C3.78371 50 0.140137 46.3675 0.140137 41.9019V8.0981C0.140137 3.6325 3.78371 0 8.26212 0H42.1797C46.6569 0 50.3001 3.6325 50.3001 8.0981V41.9032C50.3001 46.3688 46.6569 50 42.1797 50ZM38.3019 15.0403C37.0815 13.7438 35.3619 12.9363 33.4565 12.9363C29.7544 12.9363 26.7532 15.9849 26.7532 19.7455C26.7532 20.237 26.8047 20.7163 26.9021 21.1782C21.3667 20.8289 16.5261 17.8731 13.556 13.5045C13.3739 14.305 13.2779 15.1388 13.2779 15.9955C13.2779 18.7929 14.3042 21.3468 15.9953 23.2899C14.8156 23.046 13.7054 22.6077 12.6988 22.0092C13.4708 24.9678 15.4241 27.438 18.0148 28.8672C17.6535 28.9041 17.287 28.9231 16.9161 28.9231C16.2906 28.9231 15.6774 28.8693 15.0809 28.766C16.4926 30.9264 18.635 32.5517 21.1495 33.2786C19.2531 34.9293 16.7889 35.9264 14.0956 35.9264C13.3053 35.9264 12.5348 35.8406 11.7926 35.6776C14.6781 37.7932 18.2221 39.0398 22.0526 39.0398C31.2903 39.0398 38.861 31.7896 39.5508 22.5854C39.9418 21.721 40.1599 20.7591 40.1599 19.7455C40.1599 19.4547 40.1419 19.1681 40.1071 18.8869C41.3836 18.4304 42.3735 17.3568 42.7301 16.0186C41.856 16.6663 40.822 17.1043 39.6994 17.26C39.6596 17.1571 39.6174 17.0555 39.5729 16.9551C40.6987 16.1256 41.5613 14.9478 42.0084 13.5768C40.9771 14.4126 39.6981 14.9447 38.3019 15.0403Z" fill="black"/>
</svg>
