<svg width="36" height="24" viewBox="0 0 36 24" fill="none" xmlns="http://www.w3.org/2000/svg">
<path fill-rule="evenodd" clip-rule="evenodd" d="M34.2501 22.9167C33.8691 23.1336 33.4385 23.2484 33.0001 23.25H3.0001C2.56096 23.2539 2.12898 23.1387 1.7501 22.9167L11.7501 12.9167L14.2084 15.375C14.71 15.8578 15.3053 16.2327 15.9574 16.4763C16.6096 16.72 17.3048 16.8273 18.0001 16.7917C18.695 16.8235 19.3891 16.7144 20.0408 16.471C20.6924 16.2275 21.288 15.8547 21.7918 15.375L24.2501 12.9167L34.2501 22.9167ZM35.1251 22L25.1251 12L35.1251 2C35.342 2.38101 35.4568 2.81158 35.4584 3.25V20.75C35.4973 21.1929 35.3793 21.6353 35.1251 22ZM0.833429 22C0.616521 21.619 0.501702 21.1884 0.500096 20.75V3.25C0.496185 2.81086 0.61138 2.37888 0.833429 2L10.8334 12L0.833429 22ZM34.2501 1.08333L20.8751 14.4583C20.4943 14.8243 20.0431 15.109 19.5489 15.2953C19.0546 15.4815 18.5277 15.5653 18.0001 15.5417C17.4725 15.5653 16.9456 15.4815 16.4513 15.2953C15.9571 15.109 15.5059 14.8243 15.1251 14.4583L1.7501 1.08333C2.1311 0.866425 2.56168 0.751606 3.0001 0.75H33.0001C33.4385 0.7516 33.8691 0.866419 34.2501 1.08333Z" fill="#E8E8E8"/>
</svg>
