<svg width="50" height="50" viewBox="0 0 50 50" fill="white" xmlns="http://www.w3.org/2000/svg">
<path d="M41.9054 49.8826H8.09581C3.63166 49.8826 0 46.2587 0 41.8035V8.07909C0 3.62397 3.63166 0 8.09581 0H41.9054C46.3683 0 50 3.62397 50 8.07909V41.8048C50 46.2599 46.3683 49.8826 41.9054 49.8826ZM16.7777 10.3247H33.5554C37.1192 10.3247 40.0083 13.2138 40.0083 16.7777V33.5554C40.0083 37.1192 37.1192 40.0083 33.5554 40.0083H16.7777C13.2138 40.0083 10.3247 37.1192 10.3247 33.5554V16.7777C10.3247 13.2138 13.2138 10.3247 16.7777 10.3247ZM16.7777 6.45295C11.0755 6.45295 6.45295 11.0755 6.45295 16.7777V33.5554C6.45295 39.2576 11.0755 43.8801 16.7777 43.8801H33.5554C39.2576 43.8801 43.8801 39.2576 43.8801 33.5554V16.7777C43.8801 11.0755 39.2576 6.45295 33.5554 6.45295H16.7777ZM25.1665 34.2007C30.1559 34.2007 34.2007 30.1559 34.2007 25.1665C34.2007 20.1771 30.1559 16.1324 25.1665 16.1324C20.1771 16.1324 16.1324 20.1771 16.1324 25.1665C16.1324 30.1559 20.1771 34.2007 25.1665 34.2007ZM25.1665 30.3289C22.3154 30.3289 20.0042 28.0176 20.0042 25.1665C20.0042 22.3154 22.3154 20.0042 25.1665 20.0042C28.0176 20.0042 30.3289 22.3154 30.3289 25.1665C30.3289 28.0176 28.0176 30.3289 25.1665 30.3289ZM34.846 18.0683C36.2715 18.0683 37.4271 16.9126 37.4271 15.4871C37.4271 14.0615 36.2715 12.9059 34.846 12.9059C33.4204 12.9059 32.2648 14.0615 32.2648 15.4871C32.2648 16.9126 33.4204 18.0683 34.846 18.0683Z" fill="black"/>
</svg>
