<svg width="33" height="33" viewBox="0 0 33 33" fill="none" xmlns="http://www.w3.org/2000/svg">
<path fillRule="evenodd" clipRule="evenodd" d="M9.67474 23.0387L13.5049 19.2085L16.4512 22.1548C18.2455 23.9491 19.6921 24.5118 22.3437 22.4494C22.933 21.8602 23.9642 21.1236 25.1427 21.7128L30.7406 25.543C32.3611 26.8688 32.4934 27.5927 32.0665 28.6366C29.4166 35.1137 21.0179 34.0872 9.67474 23.0387ZM9.67474 23.0387C-1.3738 11.6955 -2.40028 3.29683 4.07682 0.646951C5.12068 0.220034 5.84458 0.352321 7.17041 1.97277L11.0006 7.5707C11.5898 8.74921 10.8533 9.78041 10.264 10.3697C8.2016 13.0213 8.76434 14.4679 10.5586 16.2622L13.5049 19.2085L9.67474 23.0387Z" fill="#E8E8E8"/>
</svg>
